<svg width="68" height="61" viewBox="0 0 68 61" fill="none" xmlns="http://www.w3.org/2000/svg">
<g clip-path="url(#clip0_502_2806)">
<path d="M34.1441 35.4516C43.1508 35.4516 50.4522 34.8553 50.4522 34.1198C50.4522 33.3843 43.1508 32.7881 34.1441 32.7881C25.1373 32.7881 17.8359 33.3843 17.8359 34.1198C17.8359 34.8553 25.1373 35.4516 34.1441 35.4516Z" fill="#2BAF66"/>
<path d="M22.126 19.4557L27.3286 18.1338C27.3852 18.1197 27.4384 18.0941 27.4854 18.0587C27.5323 18.0232 27.5721 17.9786 27.6022 17.9272C27.6324 17.8759 27.6525 17.819 27.6613 17.7596C27.6702 17.7003 27.6675 17.6397 27.6536 17.5814C27.561 17.1914 27.3947 16.8242 27.1643 16.5007C26.9339 16.1772 26.6438 15.9038 26.3108 15.6962C25.9777 15.4886 25.6083 15.3509 25.2236 15.291C24.8389 15.2311 24.4465 15.2501 24.0689 15.347L23.7487 15.4284C23.3708 15.524 23.0149 15.6956 22.7014 15.9334C22.3879 16.1712 22.123 16.4705 21.9219 16.8142C21.7207 17.1579 21.5873 17.5391 21.5292 17.9361C21.4711 18.3331 21.4896 18.7381 21.5835 19.1277C21.5979 19.1862 21.6235 19.2411 21.6587 19.2893C21.6938 19.3375 21.7379 19.3781 21.7884 19.4086C21.8388 19.4391 21.8947 19.459 21.9526 19.467C22.0106 19.4751 22.0695 19.4713 22.126 19.4557Z" fill="#2BAF66"/>
<path d="M39.9734 15.2116L45.1664 13.8897C45.2231 13.8758 45.2766 13.8505 45.3237 13.8151C45.3708 13.7797 45.4107 13.735 45.4409 13.6836C45.4712 13.6322 45.4912 13.5751 45.4999 13.5157C45.5086 13.4562 45.5057 13.3956 45.4915 13.3373C45.3988 12.9473 45.2326 12.58 45.0021 12.2565C44.7717 11.933 44.4816 11.6596 44.1486 11.4521C43.8156 11.2445 43.4461 11.1068 43.0614 11.0469C42.6767 10.9869 42.2843 11.006 41.9067 11.1029L41.5841 11.1843C41.2064 11.2801 40.8507 11.4519 40.5374 11.6898C40.224 11.9277 39.9592 12.227 39.7581 12.5706C39.557 12.9142 39.4236 13.2953 39.3653 13.6922C39.3071 14.0891 39.3253 14.4939 39.4189 14.8836C39.4333 14.9434 39.4592 14.9996 39.4952 15.0488C39.5311 15.098 39.5764 15.1392 39.6282 15.1698C39.68 15.2005 39.7373 15.22 39.7966 15.2272C39.856 15.2343 39.9161 15.229 39.9734 15.2116Z" fill="#2BAF66"/>
<path d="M51.0843 11.3445C50.9935 11.0979 50.8979 10.8513 50.7928 10.5776C44.6748 -0.739845 35.0725 -0.310726 30.9071 0.20471C23.8332 1.75842 19.9712 5.9189 17.8706 10.1114C16.1911 13.5024 15.4518 17.3062 15.7341 21.1033C14.9693 21.2833 11.8411 22.1736 12.4696 24.6078C13.0001 26.6671 15.2394 25.6633 16.3531 25.0147L16.408 25.2613C18.0594 30.3713 21.4004 30.5489 22.6216 30.4403V31.3208C22.6216 31.6986 22.6937 32.0728 22.8339 32.4218C22.9741 32.7708 23.1796 33.0879 23.4386 33.355C23.6976 33.6221 24.005 33.8338 24.3434 33.9782C24.6817 34.1226 25.0443 34.1967 25.4105 34.1964C25.7768 34.197 26.1397 34.1231 26.4783 33.9789C26.8169 33.8347 27.1247 33.623 27.3839 33.3559C27.6432 33.0888 27.8489 32.7716 27.9892 32.4224C28.1296 32.0732 28.2018 31.6988 28.2018 31.3208V29.2171C32.6731 28.2306 39.1352 26.7756 43.6711 25.7644L43.8384 26.7361C43.9747 27.5238 44.4084 28.2234 45.0443 28.6812C45.6802 29.139 46.4662 29.3176 47.2295 29.1776L47.5044 29.1259C47.8823 29.0568 48.2433 28.9116 48.5667 28.6983C48.8901 28.4851 49.1696 28.2082 49.3892 27.8833C49.6087 27.5585 49.764 27.1921 49.8462 26.8053C49.9283 26.4184 49.9357 26.0186 49.8679 25.6288L49.6457 24.4154C51.3974 23.7125 52.6043 21.9492 52.6043 20.4917C52.3486 17.9244 52.2649 16.2572 51.9781 14.6295C52.8576 14.4396 55.0849 13.7491 55.5629 11.5912C56.1054 9.02385 52.86 9.77111 51.0843 11.3445ZM17.2253 19.1377C17.3855 13.8798 19.173 10.2323 21.1996 7.70196C24.0316 4.17036 28.1827 2.07656 32.6038 1.64744C41.6135 0.769471 45.798 6.24691 48.2094 9.50722C51.4046 13.8206 47.7601 15.4434 47.7601 15.4434L24.1152 20.8838C23.219 21.0934 22.3276 21.3129 21.4505 21.5941C17.6292 22.8395 17.2253 20.1957 17.2253 19.1377ZM21.4362 29.2319C20.8513 29.2311 20.2866 29.0107 19.8476 28.6119C19.4085 28.213 19.1251 27.663 19.0502 27.0643C18.9753 26.4657 19.1141 25.8593 19.4405 25.3585C19.767 24.8576 20.2589 24.4965 20.8244 24.3424C21.39 24.1883 21.9905 24.2519 22.514 24.5211C23.0375 24.7904 23.4482 25.2471 23.6694 25.8059C23.8906 26.3647 23.9072 26.9874 23.7162 27.5579C23.5251 28.1284 23.1394 28.6077 22.6311 28.9064C22.2674 29.1211 21.8553 29.2334 21.4362 29.2319ZM48.7112 23.461C48.2386 23.461 47.7765 23.3164 47.3835 23.0454C46.9905 22.7744 46.6842 22.3892 46.5033 21.9386C46.3225 21.4879 46.2751 20.9921 46.3673 20.5137C46.4596 20.0353 46.6872 19.5958 47.0214 19.2509C47.3556 18.906 47.7814 18.6711 48.245 18.576C48.7086 18.4808 49.1891 18.5297 49.6258 18.7163C50.0625 18.903 50.4357 19.2191 50.6983 19.6246C50.9609 20.0302 51.1011 20.507 51.1011 20.9948C51.1011 21.6489 50.8493 22.2762 50.4011 22.7387C49.9529 23.2012 49.3451 23.461 48.7112 23.461Z" fill="#2BAF66"/>
<path d="M68.0014 41.4688L64.9687 54.7098H60.5547L63.585 41.4688H68.0014Z" fill="#2BAF66"/>
<path d="M62.6962 60.7027C63.9738 60.7027 65.0095 59.624 65.0095 58.2933C65.0095 56.9625 63.9738 55.8838 62.6962 55.8838C61.4185 55.8838 60.3828 56.9625 60.3828 58.2933C60.3828 59.624 61.4185 60.7027 62.6962 60.7027Z" fill="#2BAF66"/>
<path d="M5.4464 54.311L0 48.1504H6.11794L8.79932 51.7436L11.4831 48.1504H17.601L12.1546 54.3159L17.601 60.4814H11.4831L8.79932 56.8783L6.11794 60.474H0L5.4464 54.311Z" fill="#2BAF66"/>
<path d="M24.1914 56.7743C24.6263 56.7743 24.9967 56.7743 25.3074 56.7447C25.5937 56.7284 25.8778 56.6839 26.1558 56.6116C26.4038 56.5457 26.6442 56.4522 26.8727 56.3329C27.1203 56.2008 27.3521 56.0394 27.5634 55.852H32.1997C31.8985 57.4961 31.1019 58.7111 29.8098 59.497C28.5177 60.2829 26.6449 60.6734 24.1914 60.6685C23.12 60.6785 22.051 60.561 21.0057 60.3183C20.1122 60.1206 19.2662 59.7399 18.5179 59.1986C17.8307 58.6904 17.2785 58.0119 16.912 57.2257C16.5079 56.3109 16.3117 55.313 16.3384 54.3081C16.3111 53.3021 16.5107 52.3034 16.9215 51.3906C17.2973 50.601 17.8604 49.9223 18.5586 49.4177C19.3241 48.8759 20.1858 48.4954 21.0942 48.298C22.1764 48.0537 23.2819 47.9362 24.3897 47.9478C25.5049 47.9354 26.6176 48.0596 27.7044 48.3177C28.621 48.5304 29.4826 48.9443 30.2304 49.5311C30.9437 50.1148 31.4979 50.8796 31.8388 51.7507C32.2407 52.8309 32.4315 53.9826 32.4004 55.1392H21.1682C21.2478 55.4462 21.4044 55.7261 21.6223 55.9506C21.8308 56.1579 22.0736 56.325 22.3393 56.4439C22.62 56.5674 22.916 56.6504 23.2187 56.6905C23.5404 56.7437 23.8656 56.7718 24.1914 56.7743ZM24.3706 45.6641L20.284 47.3066V44.431L24.3754 42.7885L28.4596 44.431V47.3066L24.3706 45.6641ZM24.3706 51.435C24.0528 51.435 23.7445 51.4498 23.441 51.4769C23.1574 51.5005 22.877 51.5551 22.6045 51.6397C22.3516 51.7208 22.114 51.8459 21.9019 52.0096C21.6841 52.185 21.5089 52.4105 21.3905 52.6681H27.3483C27.2299 52.4105 27.0548 52.185 26.8369 52.0096C26.6245 51.8464 26.387 51.7214 26.1343 51.6397C25.8618 51.5551 25.5815 51.5005 25.2979 51.4769C24.9943 51.4498 24.6861 51.435 24.3754 51.435H24.3706ZM26.6577 40.1176L30.7419 38.4727V41.3482L26.6577 42.9907V40.1176Z" fill="#2BAF66"/>
<path d="M44.2457 60.669C43.1097 60.6858 41.9755 60.5716 40.8641 60.3287C39.9579 60.1362 39.0992 59.7552 38.3404 59.209C37.655 58.7035 37.1076 58.0239 36.7512 57.2361C36.0152 55.3652 36.0152 53.2719 36.7512 51.401C37.1076 50.6132 37.655 49.9336 38.3404 49.4281C39.0986 48.8776 39.9572 48.4916 40.8641 48.2936C41.9759 48.0472 43.111 47.9297 44.2481 47.9434C45.0934 47.9388 45.9379 48.0006 46.7741 48.1284C46.8987 48.1427 47.024 48.1501 47.1493 48.1506H47.5054C48.1092 48.1506 48.5075 47.9377 48.7003 47.5118C48.9177 46.9367 49.0154 46.3208 48.9871 45.7041H52.3018C52.311 46.5227 52.1808 47.3366 51.917 48.1086C51.6798 48.8107 51.1975 49.3963 50.5644 49.7511C51.1317 50.2735 51.5742 50.9243 51.8573 51.6526C52.1714 52.5006 52.3224 53.4036 52.3018 54.3111C52.328 55.3137 52.1395 56.3099 51.7497 57.2287C51.3934 58.0165 50.846 58.6961 50.1605 59.2016C49.4008 59.7479 48.5414 60.1288 47.6345 60.3213C46.521 60.5675 45.3843 60.6842 44.2457 60.669ZM44.2457 56.5603C44.7183 56.5638 45.1905 56.53 45.6581 56.4592C46.0235 56.4071 46.3771 56.2885 46.7024 56.109C46.9788 55.9515 47.2028 55.7117 47.3453 55.4209C47.6321 54.7038 47.6321 53.8987 47.3453 53.1816C47.2028 52.8909 46.9788 52.6511 46.7024 52.4936C46.3769 52.3149 46.0234 52.1972 45.6581 52.1458C44.722 52.0077 43.7717 52.0077 42.8357 52.1458C42.4697 52.1976 42.1155 52.3153 41.789 52.4936C41.5137 52.6519 41.2907 52.8915 41.1485 53.1816C41.0049 53.5363 40.931 53.9169 40.931 54.3013C40.931 54.6857 41.0049 55.0662 41.1485 55.4209C41.2907 55.7111 41.5137 55.9507 41.789 56.109C42.1153 56.2882 42.4696 56.4067 42.8357 56.4592C43.3022 56.5334 43.7736 56.5705 44.2457 56.5702V56.5603Z" fill="#2BAF66"/>
<path d="M58.02 44.0215V46.9168H53.293V44.0215H58.02ZM58.02 48.1499V60.4809H53.293V48.1499H58.02Z" fill="#2BAF66"/>
</g>
<defs>
<clipPath id="clip0_502_2806">
<rect width="68" height="60.7031" fill="white"/>
</clipPath>
</defs>
</svg>
